# Blender v2.74 (sub 0) OBJ File: ''
# www.blender.org
mtllib standard-gemstone-3d-models.mtl
o Marquise
v -0.056829 -0.059245 0.015771
v -0.154834 0.003926 0.045991
v -0.154834 -0.002271 0.045991
v -0.106921 -0.002171 0.076741
v -0.017345 -0.059253 0.035484
v -0.106921 0.004025 0.076741
v -0.137353 0.023389 0.025266
v -0.048118 0.023287 0.065125
v -0.055773 0.004051 0.094574
v -0.055773 -0.002145 0.094574
v 0.005816 0.030482 0.053028
v -0.086473 0.030482 0.030664
v -0.124699 0.030482 0.000300
v 0.005816 -0.002196 0.102960
v 0.068461 -0.059245 0.015771
v 0.166466 0.003926 0.045991
v 0.166466 -0.002271 0.045991
v 0.118553 -0.002171 0.076741
v 0.028977 -0.059253 0.035484
v 0.118553 0.004025 0.076741
v 0.148985 0.023389 0.025266
v 0.098105 0.030482 0.030664
v 0.059749 0.023287 0.065125
v 0.067405 0.004051 0.094574
v 0.067405 -0.002145 0.094574
v 0.005816 0.004094 0.102984
v 0.136330 0.030482 0.000300
v -0.194823 -0.002161 0.000300
v -0.154834 0.003926 -0.045439
v -0.154834 -0.002271 -0.045439
v -0.056833 -0.059244 -0.015171
v -0.106921 -0.002171 -0.076189
v -0.017356 -0.059242 -0.034884
v -0.106921 0.004025 -0.076189
v -0.137353 0.023389 -0.024714
v -0.086473 0.030482 -0.030112
v -0.048118 0.023287 -0.064525
v -0.055773 0.004051 -0.093974
v -0.055773 -0.002145 -0.093974
v 0.005816 -0.002196 -0.102360
v 0.005816 0.004094 -0.102384
v 0.005816 0.030482 -0.052476
v 0.059749 0.023287 -0.064525
v 0.028987 -0.059242 -0.034884
v 0.098105 0.030482 -0.030112
v 0.206485 0.004087 0.000300
v 0.206455 -0.002161 0.000300
v 0.166466 0.003926 -0.045439
v 0.166466 -0.002271 -0.045439
v 0.068465 -0.059244 -0.015171
v 0.118553 -0.002171 -0.076189
v 0.118553 0.004025 -0.076189
v 0.148985 0.023389 -0.024714
v 0.067405 0.004051 -0.093974
v 0.067405 -0.002145 -0.093974
v -0.194854 0.004087 0.000300
v 0.005816 -0.083752 0.000300
v -0.178480 -0.001390 0.023652
v -0.178480 0.003192 0.023652
v -0.133611 -0.001414 0.062539
v -0.133611 0.003168 0.062539
v -0.083090 0.003231 0.087365
v -0.083090 -0.001351 0.087365
v -0.025595 -0.001328 0.100786
v -0.025595 0.003254 0.100786
v 0.190112 -0.001390 0.023554
v 0.190112 0.003192 0.023652
v 0.145243 -0.001414 0.062539
v 0.145243 0.003168 0.062539
v 0.094722 -0.001351 0.087365
v 0.094722 0.003231 0.087365
v 0.037226 -0.001328 0.100786
v 0.037226 0.003254 0.100786
v -0.178480 -0.001390 -0.023051
v -0.178480 0.003192 -0.023051
v -0.133611 -0.001414 -0.062036
v -0.133611 0.003168 -0.062036
v -0.083090 -0.001351 -0.086862
v -0.083090 0.003231 -0.086862
v -0.025595 -0.001328 -0.100185
v -0.025595 0.003254 -0.100185
v 0.190112 0.003192 -0.023100
v 0.190112 -0.001390 -0.023051
v 0.145243 -0.001414 -0.062036
v 0.145243 0.003168 -0.062085
v 0.094722 0.003231 -0.086862
v 0.094722 -0.001351 -0.086862
v 0.037226 -0.001328 -0.100185
v 0.037226 0.003254 -0.100185
vt 0.054517 0.012004
vt 0.054626 0.003420
vt 0.115546 0.002277
vt 0.115488 0.013885
vt 0.883874 0.569255
vt 0.846847 0.607719
vt 0.802142 0.330010
vt 0.916463 0.517751
vt 0.370422 0.437095
vt 0.284678 0.632565
vt 0.288757 0.450205
vt 0.365320 0.346194
vt 0.228726 0.641265
vt 0.178311 0.640239
vt 0.165953 0.012553
vt 0.165923 0.003969
vt 0.222524 0.002064
vt 0.222643 0.013672
vt 0.556064 0.021025
vt 0.611544 0.033606
vt 0.504075 0.081005
vt 0.505212 0.018770
vt 0.443825 0.020433
vt 0.391659 0.032626
vt 0.679895 0.129704
vt 0.582655 0.136968
vt 0.271501 0.011597
vt 0.271428 0.003012
vt 0.324382 0.001253
vt 0.324412 0.012862
vt 0.658978 0.046136
vt 0.707360 0.068212
vt 0.332820 0.624094
vt 0.382775 0.606588
vt 0.386861 0.866201
vt 0.520020 0.760590
vt 0.485449 0.928180
vt 0.433503 0.900224
vt 0.759447 0.093671
vt 0.808360 0.126913
vt 0.840915 0.251203
vt 0.744328 0.211760
vt 0.490593 0.133019
vt 0.594494 0.708029
vt 0.597813 0.799124
vt 0.441033 0.013628
vt 0.382101 0.011379
vt 0.382151 0.002794
vt 0.441199 0.001843
vt 0.418486 0.160772
vt 0.490105 0.217662
vt 0.418486 0.274642
vt 0.766534 0.003926
vt 0.827620 0.003843
vt 0.827712 0.012429
vt 0.766818 0.015531
vt 0.033798 0.940520
vt 0.001043 0.888971
vt 0.115363 0.701231
vt 0.070659 0.978939
vt 0.546240 0.231675
vt 0.551344 0.140772
vt 0.627908 0.244783
vt 0.631987 0.427144
vt 0.687939 0.435844
vt 0.738354 0.434817
vt 0.659619 0.005423
vt 0.716213 0.006567
vt 0.716322 0.015150
vt 0.659625 0.017032
vt 0.979187 0.340362
vt 0.995457 0.388086
vt 0.935998 0.407449
vt 0.951870 0.290697
vt 0.378491 0.644432
vt 0.391627 0.592612
vt 0.437897 0.706532
vt 0.375391 0.705284
vt 0.860713 0.346570
vt 0.557935 0.004329
vt 0.610785 0.006771
vt 0.610691 0.015354
vt 0.557690 0.015936
vt 0.926948 0.248498
vt 0.892510 0.207960
vt 0.583846 0.418673
vt 0.533890 0.401169
vt 0.594494 0.969046
vt 0.539166 0.952563
vt 0.853747 0.164836
vt 0.888667 0.433674
vt 0.500189 0.004457
vt 0.500013 0.013040
vt 0.437899 0.146595
vt 0.490533 0.693036
vt 0.504092 0.640961
vt 0.766708 0.983594
vt 0.827677 0.985395
vt 0.827692 0.993980
vt 0.766641 0.995203
vt 0.795516 0.593030
vt 0.741398 0.564857
vt 0.746149 0.345084
vt 0.013437 0.326587
vt 0.018540 0.235662
vt 0.095074 0.339697
vt 0.099089 0.522109
vt 0.155003 0.530863
vt 0.205472 0.529771
vt 0.659715 0.982363
vt 0.716254 0.984754
vt 0.716143 0.993338
vt 0.659491 0.993969
vt 0.979171 0.900365
vt 0.995395 0.948164
vt 0.935932 0.967517
vt 0.951823 0.850769
vt 0.378538 0.084447
vt 0.375391 0.145362
vt 0.840831 0.811323
vt 0.860658 0.906625
vt 0.557902 0.980464
vt 0.610775 0.982844
vt 0.610610 0.991427
vt 0.557726 0.992072
vt 0.926951 0.808499
vt 0.892437 0.768090
vt 0.050904 0.513683
vt 0.001043 0.496055
vt 0.882740 0.724845
vt 0.995116 0.595809
vt 0.991779 0.765714
vt 0.936453 0.749226
vt 0.808308 0.687024
vt 0.853683 0.724959
vt 0.744303 0.771789
vt 0.679840 0.689782
vt 0.888550 0.993808
vt 0.991779 0.504693
vt 0.917280 0.557259
vt 0.500136 0.981226
vt 0.500046 0.989810
vt 0.441070 0.990932
vt 0.441130 0.979146
vt 0.054578 0.993832
vt 0.054500 0.985248
vt 0.115463 0.983220
vt 0.115569 0.994828
vt 0.121990 0.964250
vt 0.171357 0.716305
vt 0.176108 0.936078
vt 0.374526 0.771844
vt 0.288861 0.967357
vt 0.292875 0.784944
vt 0.369426 0.680917
vt 0.232951 0.976111
vt 0.182482 0.975023
vt 0.166122 0.992793
vt 0.165915 0.984211
vt 0.222452 0.981409
vt 0.222721 0.993014
vt 0.556215 0.580885
vt 0.611576 0.593600
vt 0.505248 0.578728
vt 0.443860 0.580375
vt 0.582653 0.696951
vt 0.271577 0.990458
vt 0.271421 0.981875
vt 0.324312 0.979620
vt 0.324449 0.991228
vt 0.659058 0.606088
vt 0.707325 0.628298
vt 0.337042 0.958938
vt 0.386905 0.941315
vt 0.830794 0.696894
vt 0.784150 0.662875
vt 0.759403 0.653771
vt 0.382121 0.989214
vt 0.382093 0.980629
vt 0.741398 0.215850
vt 0.176108 0.587070
vt 0.001043 0.012773
vt 0.001274 0.001069
vt 0.880830 0.001043
vt 0.881161 0.012745
vt 0.881051 0.983639
vt 0.881152 0.995345
vt 0.001043 0.995284
vt 0.001125 0.983578
vt 0.072662 0.160775
vt 0.245574 0.118874
vt 0.245574 0.316544
vt 0.072662 0.274645
vt 0.001043 0.217665
vn -0.686700 0.000000 0.726900
vn -0.386600 -0.858700 0.336300
vn -0.253000 -0.824300 0.506500
vn -0.313300 -0.812900 0.490900
vn -0.469700 0.000000 0.882800
vn -0.308100 0.822900 0.477400
vn -0.420900 0.827500 0.371600
vn -0.188700 0.885500 0.424700
vn -0.255200 0.000000 0.966900
vn -0.173200 0.851200 0.495400
vn -0.208400 -0.773200 0.598900
vn -0.089700 -0.750700 0.654500
vn -0.072000 0.849500 0.522700
vn 0.000000 0.884200 0.467100
vn -0.066500 0.959400 0.274300
vn -0.155800 0.968100 0.196100
vn 0.000000 -0.783000 0.622000
vn -0.069400 -0.002200 0.997600
vn 0.000000 1.000000 0.000000
vn 0.687500 -0.006600 0.726100
vn 0.386800 -0.858600 0.336500
vn 0.253000 -0.824300 0.506500
vn 0.313300 -0.812900 0.490900
vn 0.469700 0.000000 0.882800
vn 0.308100 0.822900 0.477400
vn 0.420900 0.827500 0.371600
vn 0.188700 0.885500 0.424700
vn 0.255200 0.000000 0.966900
vn 0.173200 0.851200 0.495400
vn 0.208400 -0.773200 0.598900
vn 0.089700 -0.750700 0.654500
vn 0.072000 0.849500 0.522700
vn 0.066500 0.959400 0.274300
vn 0.155800 0.968100 0.196100
vn 0.069400 -0.002200 0.997600
vn -0.352100 0.935900 -0.000000
vn 0.352100 0.935900 0.000000
vn -0.687500 0.000000 -0.726200
vn -0.386700 -0.858800 -0.336000
vn -0.252900 -0.824300 -0.506500
vn -0.313100 -0.813200 -0.490500
vn -0.468500 0.000000 -0.883500
vn -0.307800 0.823300 -0.476900
vn -0.421300 0.827300 -0.371600
vn -0.188500 0.885500 -0.424800
vn -0.251900 0.000000 -0.967700
vn -0.172500 0.851700 -0.494800
vn -0.207800 -0.773500 -0.598700
vn -0.089700 -0.750700 -0.654500
vn -0.072000 0.849500 -0.522700
vn 0.000000 0.884000 -0.467400
vn -0.066600 0.959200 -0.274700
vn -0.155700 0.968200 -0.195800
vn 0.000000 -0.783000 -0.622000
vn -0.069500 -0.002200 -0.997600
vn 0.687100 -0.003300 -0.726500
vn 0.386700 -0.858800 -0.336000
vn 0.252900 -0.824300 -0.506500
vn 0.313100 -0.813200 -0.490500
vn 0.467800 -0.004000 -0.883800
vn 0.307500 0.823700 -0.476500
vn 0.421000 0.827600 -0.371300
vn 0.188500 0.885500 -0.424800
vn 0.251900 0.000000 -0.967700
vn 0.172500 0.851700 -0.494800
vn 0.207800 -0.773500 -0.598700
vn 0.089700 -0.750700 -0.654500
vn 0.072000 0.849500 -0.522700
vn 0.066600 0.959200 -0.274700
vn 0.155700 0.968200 -0.195800
vn 0.069500 -0.002200 -0.997600
vn -0.376700 -0.926300 0.000000
vn 0.376700 -0.926300 0.000000
vn -0.819000 -0.002300 0.573700
vn -0.614900 0.000000 0.788600
vn -0.407200 0.000000 0.913300
vn -0.201600 0.000000 0.979500
vn 0.818500 -0.007500 0.574500
vn 0.614900 0.000000 0.788600
vn 0.407200 0.000000 0.913300
vn 0.201600 0.000000 0.979500
vn -0.819000 -0.002300 -0.573800
vn -0.616000 0.000000 -0.787700
vn -0.408800 0.000000 -0.912600
vn -0.201600 0.000000 -0.979500
vn 0.819300 -0.004900 -0.573300
vn 0.616600 -0.003600 -0.787300
vn 0.408800 0.000000 -0.912600
vn 0.201600 0.000000 -0.979500
usemtl Gem
s 1
f 59/1/1 58/2/1 3/3/1 2/4/1
f 58/5/2 28/6/2 1/7/2 3/8/2
f 5/9/3 4/10/3 1/11/3 57/12/3
f 60/13/4 3/14/4 1/11/4 4/10/4
f 61/15/5 60/16/5 4/17/5 6/18/5
f 61/19/6 6/20/6 7/21/6 2/22/6
f 59/23/7 2/22/7 7/21/7 56/24/7
f 8/25/8 12/26/8 7/21/8 6/20/8
f 62/27/9 63/28/9 10/29/9 9/30/9
f 62/31/10 9/32/10 8/25/10 6/20/10
f 63/33/11 4/10/11 5/9/11 10/34/11
f 10/35/12 5/36/12 14/37/12 64/38/12
f 8/25/13 9/32/13 65/39/13 26/40/13
f 26/40/14 23/41/14 11/42/14 8/25/14
f 8/25/15 11/42/15 12/26/15
f 7/21/16 12/26/16 13/43/16
f 57/44/17 19/45/17 14/37/17 5/36/17
f 26/46/18 65/47/18 64/48/18 14/49/18
f 22/50/19 27/51/19 45/52/19
f 17/53/20 66/54/20 67/55/20 16/56/20
f 66/57/21 17/58/21 15/59/21 47/60/21
f 19/61/22 57/62/22 15/63/22 18/64/22
f 68/65/23 18/64/23 15/63/23 17/66/23
f 18/67/24 68/68/24 69/69/24 20/70/24
f 69/71/25 16/72/25 21/73/25 20/74/25
f 67/75/26 46/76/26 21/77/26 16/78/26
f 23/41/27 20/74/27 21/73/27 22/79/27
f 25/80/28 70/81/28 71/82/28 24/83/28
f 71/84/29 20/74/29 23/41/29 24/85/29
f 70/86/30 25/87/30 19/61/30 18/64/30
f 14/37/31 19/45/31 25/88/31 72/89/31
f 23/41/32 26/40/32 73/90/32 24/85/32
f 23/41/33 22/79/33 11/42/33
f 21/73/34 27/91/34 22/79/34
f 72/92/35 73/93/35 26/46/35 14/49/35
f 56/24/36 7/21/36 13/43/36 35/94/36
f 27/95/37 21/77/37 46/76/37 53/96/37
f 30/97/38 74/98/38 75/99/38 29/100/38
f 74/101/39 30/102/39 31/103/39 28/6/39
f 33/104/40 57/105/40 31/106/40 32/107/40
f 76/108/41 32/107/41 31/106/41 30/109/41
f 32/110/42 76/111/42 77/112/42 34/113/42
f 77/114/43 29/115/43 35/116/43 34/117/43
f 75/118/44 56/24/44 35/94/44 29/119/44
f 37/120/45 34/117/45 35/116/45 36/121/45
f 39/122/46 78/123/46 79/124/46 38/125/46
f 79/126/47 34/117/47 37/120/47 38/127/47
f 78/128/48 39/129/48 33/104/48 32/107/48
f 40/130/49 33/131/49 39/132/49 80/133/49
f 37/120/50 41/134/50 81/135/50 38/127/50
f 41/134/51 37/120/51 42/136/51 43/137/51
f 37/120/52 36/121/52 42/136/52
f 35/116/53 13/138/53 36/121/53
f 57/139/54 33/131/54 40/130/54 44/140/54
f 80/141/55 81/142/55 41/143/55 40/144/55
f 82/145/56 83/146/56 49/147/56 48/148/56
f 83/149/57 47/60/57 50/150/57 49/151/57
f 44/152/58 51/153/58 50/154/58 57/155/58
f 84/156/59 49/157/59 50/154/59 51/153/59
f 85/158/60 84/159/60 51/160/60 52/161/60
f 85/162/61 52/163/61 53/96/61 48/164/61
f 82/165/62 48/164/62 53/96/62 46/76/62
f 43/137/63 45/166/63 53/96/63 52/163/63
f 86/167/64 87/168/64 55/169/64 54/170/64
f 86/171/65 54/172/65 43/137/65 52/163/65
f 87/173/66 51/153/66 44/152/66 55/174/66
f 40/130/67 88/175/67 55/176/67 44/140/67
f 43/137/68 54/172/68 89/177/68 41/134/68
f 43/137/69 42/136/69 45/166/69
f 53/96/70 45/166/70 27/95/70
f 41/143/71 89/178/71 88/179/71 40/144/71
f 28/6/72 31/103/72 57/180/72 1/7/72
f 47/60/73 15/59/73 57/181/73 50/150/73
f 59/1/74 56/182/74 28/183/74 58/2/74
f 61/15/75 2/4/75 3/3/75 60/16/75
f 62/27/76 6/18/76 4/17/76 63/28/76
f 65/47/77 9/30/77 10/29/77 64/48/77
f 66/54/78 47/184/78 46/185/78 67/55/78
f 68/68/79 17/53/79 16/56/79 69/69/79
f 70/81/80 18/67/80 20/70/80 71/82/80
f 72/92/81 25/80/81 24/83/81 73/93/81
f 74/98/82 28/186/82 56/187/82 75/99/82
f 76/111/83 30/97/83 29/100/83 77/112/83
f 78/123/84 32/110/84 34/113/84 79/124/84
f 80/141/85 39/122/85 38/125/85 81/142/85
f 82/145/86 46/188/86 47/189/86 83/146/86
f 85/158/87 48/148/87 49/147/87 84/159/87
f 86/167/88 52/161/88 51/160/88 87/168/88
f 89/178/89 54/170/89 55/169/89 88/179/89
f 12/190/19 11/191/19 42/192/19 36/193/19
f 11/191/19 22/50/19 45/52/19 42/192/19
f 12/190/19 36/193/19 13/194/19
