# Blender v2.74 (sub 0) OBJ File: ''
# www.blender.org
mtllib standard-gemstone-3d-models.mtl
o Asscher
v 0.089360 0.043986 0.057412
v 0.064763 0.043986 0.079744
v 0.070877 0.036399 0.092835
v 0.102321 0.036399 0.063989
v 0.077444 0.027116 0.107182
v 0.116527 0.027116 0.070742
v 0.090668 0.004787 0.134023
v 0.141913 0.004787 0.085047
v 0.090668 -0.001425 0.134023
v 0.141913 -0.001425 0.085047
v 0.062351 -0.055528 0.093044
v 0.100101 -0.055528 0.057944
v 0.034804 -0.091536 0.049423
v 0.055394 -0.091536 0.031994
v -0.052963 0.043986 0.079744
v -0.077560 0.043986 0.057412
v -0.059077 0.036399 0.092835
v -0.090521 0.036399 0.063989
v -0.065644 0.027116 0.107182
v -0.104727 0.027116 0.070742
v -0.078868 0.004787 0.134023
v -0.130113 0.004787 0.085047
v -0.078868 -0.001425 0.134023
v -0.130113 -0.001425 0.085047
v -0.050551 -0.055528 0.093044
v -0.088301 -0.055528 0.057944
v -0.023004 -0.091536 0.049423
v -0.043594 -0.091536 0.031994
v 0.064763 0.043986 -0.079144
v 0.089360 0.043986 -0.056812
v 0.070877 0.036399 -0.092235
v 0.102321 0.036399 -0.063389
v 0.077444 0.027116 -0.106582
v 0.116527 0.027116 -0.070142
v 0.090668 0.004787 -0.133423
v 0.141913 0.004787 -0.084447
v 0.090668 -0.001425 -0.133423
v 0.141913 -0.001425 -0.084447
v 0.062351 -0.055528 -0.092444
v 0.100101 -0.055528 -0.057344
v 0.034804 -0.091536 -0.048823
v 0.055394 -0.091536 -0.031395
v 0.005900 -0.121366 0.000300
v -0.077560 0.043986 -0.056812
v -0.052963 0.043986 -0.079144
v -0.059077 0.036399 -0.092235
v -0.090521 0.036399 -0.063389
v -0.065644 0.027116 -0.106582
v -0.104727 0.027116 -0.070142
v -0.078868 0.004787 -0.133423
v -0.130113 0.004787 -0.084447
v -0.078868 -0.001425 -0.133423
v -0.130113 -0.001425 -0.084447
v -0.050551 -0.055528 -0.092444
v -0.088301 -0.055528 -0.057344
v -0.023004 -0.091536 -0.048823
v -0.043594 -0.091536 -0.031395
vt 0.894321 0.324136
vt 0.916175 0.334451
vt 0.870990 0.383604
vt 0.859910 0.362067
vt 0.671490 0.383604
vt 0.682571 0.362067
vt 0.940492 0.345901
vt 0.882687 0.407538
vt 0.992109 0.371781
vt 0.910361 0.456952
vt 0.632120 0.456952
vt 0.659793 0.407538
vt 0.131076 0.523672
vt 0.121412 0.512283
vt 0.422045 0.512283
vt 0.412381 0.523672
vt 0.435901 0.512651
vt 0.517084 0.419725
vt 0.517085 0.433585
vt 0.528485 0.409957
vt 0.517084 0.118850
vt 0.528485 0.128617
vt 0.179819 0.421043
vt 0.363638 0.421043
vt 0.425018 0.363117
vt 0.425018 0.175457
vt 0.227415 0.344990
vt 0.316042 0.344990
vt 0.347448 0.318215
vt 0.271729 0.269287
vt 0.916175 0.130881
vt 0.894320 0.141196
vt 0.859910 0.103265
vt 0.870990 0.081728
vt 0.940492 0.119430
vt 0.882687 0.057794
vt 0.992109 0.093550
vt 0.910360 0.008380
vt 0.659793 0.057794
vt 0.632119 0.008380
vt 0.107556 0.512650
vt 0.026373 0.433585
vt 0.026374 0.419725
vt 0.118439 0.363117
vt 0.026374 0.118850
vt 0.118439 0.175457
vt 0.196009 0.318215
vt 0.196009 0.220359
vt 0.648160 0.324136
vt 0.648159 0.141196
vt 0.682570 0.103265
vt 0.626305 0.334451
vt 0.601988 0.345902
vt 0.550371 0.371782
vt 0.422045 0.026291
vt 0.121412 0.026291
vt 0.131077 0.014902
vt 0.412381 0.014902
vt 0.435901 0.025924
vt 0.517085 0.104989
vt 0.363638 0.117532
vt 0.179819 0.117532
vt 0.316042 0.193584
vt 0.227415 0.193584
vt 0.347448 0.220359
vt 0.626305 0.130882
vt 0.671490 0.081728
vt 0.601988 0.119431
vt 0.550371 0.093551
vt 0.107556 0.025924
vt 0.026373 0.104989
vt 0.014972 0.409957
vt 0.014972 0.128617
vn 0.326800 0.874700 0.357900
vn 0.505200 0.863000 0.000000
vn 0.361000 0.847100 0.390000
vn 0.426400 0.784100 0.450900
vn 0.660400 0.750900 -0.000000
vn 0.000000 0.000000 1.000000
vn 0.690900 0.000000 0.722900
vn 1.000000 0.000000 -0.000000
vn 0.000000 -0.603800 0.797100
vn 0.509800 -0.670000 0.539700
vn 0.791300 -0.611500 0.000000
vn 0.000000 -0.771200 0.636600
vn 0.390900 -0.811600 0.434200
vn 0.000000 -0.854700 0.519100
vn 0.303000 -0.883200 0.358000
vn 0.000000 0.865200 0.501400
vn -0.326800 0.874700 0.357900
vn 0.000000 0.839600 0.543200
vn -0.361000 0.847100 0.390000
vn 0.000000 0.768800 0.639500
vn -0.426400 0.784100 0.450900
vn -0.660400 0.750900 0.000000
vn -0.690900 0.000000 0.722900
vn -0.509800 -0.670000 0.539700
vn -0.791300 -0.611500 0.000000
vn -0.390900 -0.811600 0.434200
vn -0.627300 -0.778800 0.000000
vn -0.303000 -0.883200 0.358000
vn 0.000000 1.000000 -0.000000
vn 0.326800 0.874700 -0.357900
vn 0.361000 0.847100 -0.390000
vn 0.547000 0.837100 -0.000000
vn 0.426400 0.784100 -0.450900
vn 0.000000 0.000000 -1.000000
vn 0.690900 0.000000 -0.722900
vn 0.000000 -0.603800 -0.797100
vn 0.509800 -0.670000 -0.539700
vn 0.000000 -0.771200 -0.636600
vn 0.390900 -0.811600 -0.434200
vn 0.627300 -0.778800 0.000000
vn 0.000000 -0.854700 -0.519100
vn 0.303000 -0.883200 -0.358000
vn 0.516200 -0.856500 0.000000
vn 0.000000 0.865200 -0.501400
vn -0.326800 0.874700 -0.357900
vn -0.505200 0.863000 0.000000
vn 0.000000 0.839600 -0.543200
vn -0.361000 0.847100 -0.390000
vn -0.547000 0.837100 0.000000
vn 0.000000 0.768800 -0.639500
vn -0.426400 0.784100 -0.450900
vn -0.690900 0.000000 -0.722900
vn -1.000000 0.000000 0.000000
vn -0.509800 -0.670000 -0.539700
vn -0.390900 -0.811600 -0.434200
vn -0.303000 -0.883200 -0.358000
vn -0.516200 -0.856500 0.000000
usemtl Gem
s 1
f 2/1/1 3/2/1 4/3/1 1/4/1
f 1/4/2 4/3/2 32/5/2 30/6/2
f 3/2/3 5/7/3 6/8/3 4/3/3
f 5/7/4 7/9/4 8/10/4 6/8/4
f 6/8/5 8/10/5 36/11/5 34/12/5
f 21/13/6 23/14/6 9/15/6 7/16/6
f 7/17/7 9/15/7 10/18/7 8/19/7
f 8/20/8 10/18/8 38/21/8 36/22/8
f 9/15/9 23/14/9 25/23/9 11/24/9
f 10/18/10 9/15/10 11/24/10 12/25/10
f 12/25/11 40/26/11 38/21/11 10/18/11
f 25/23/12 27/27/12 13/28/12 11/24/12
f 11/24/13 13/28/13 14/29/13 12/25/13
f 27/27/14 43/30/14 13/28/14
f 13/28/15 43/30/15 14/29/15
f 17/31/16 3/2/16 2/1/16 15/32/16
f 15/32/17 16/33/17 18/34/17 17/31/17
f 19/35/18 5/7/18 3/2/18 17/31/18
f 17/31/19 18/34/19 20/36/19 19/35/19
f 21/37/20 7/9/20 5/7/20 19/35/20
f 19/35/21 20/36/21 22/38/21 21/37/21
f 49/39/22 51/40/22 22/38/22 20/36/22
f 21/41/23 22/42/23 24/43/23 23/14/23
f 24/43/24 26/44/24 25/23/24 23/14/24
f 53/45/25 55/46/25 26/44/25 24/43/25
f 25/23/26 26/44/26 28/47/26 27/27/26
f 26/44/27 55/46/27 57/48/27 28/47/27
f 27/27/28 28/47/28 43/30/28
f 29/49/29 45/50/29 44/51/29 30/6/29
f 29/49/30 30/6/30 32/5/30 31/52/30
f 31/52/31 32/5/31 34/12/31 33/53/31
f 32/5/32 4/3/32 6/8/32 34/12/32
f 33/53/33 34/12/33 36/11/33 35/54/33
f 37/55/34 52/56/34 50/57/34 35/58/34
f 35/59/35 36/60/35 38/21/35 37/55/35
f 37/55/36 39/61/36 54/62/36 52/56/36
f 38/21/37 40/26/37 39/61/37 37/55/37
f 41/63/38 56/64/38 54/62/38 39/61/38
f 39/61/39 40/26/39 42/65/39 41/63/39
f 40/26/40 12/25/40 14/29/40 42/65/40
f 41/63/41 43/30/41 56/64/41
f 41/63/42 42/65/42 43/30/42
f 42/65/43 14/29/43 43/30/43
f 29/49/44 31/52/44 46/66/44 45/50/44
f 45/50/45 46/66/45 47/67/45 44/51/45
f 44/51/46 47/67/46 18/34/46 16/33/46
f 31/52/47 33/53/47 48/68/47 46/66/47
f 46/66/48 48/68/48 49/39/48 47/67/48
f 49/39/49 20/36/49 18/34/49 47/67/49
f 33/53/50 35/54/50 50/69/50 48/68/50
f 48/68/51 50/69/51 51/40/51 49/39/51
f 50/70/52 52/56/52 53/45/52 51/71/52
f 53/45/53 24/43/53 22/72/53 51/73/53
f 53/45/54 52/56/54 54/62/54 55/46/54
f 54/62/55 56/64/55 57/48/55 55/46/55
f 56/64/56 43/30/56 57/48/56
f 57/48/57 43/30/57 28/47/57
f 1/4/29 16/33/29 15/32/29 2/1/29
f 30/6/29 44/51/29 16/33/29 1/4/29
