# Blender v2.74 (sub 0) OBJ File: ''
# www.blender.org
mtllib standard-gemstone-3d-models.mtl
o Pear
v 0.155835 0.007290 0.048537
v 0.165900 0.007290 0.000300
v -0.110535 0.007290 0.044491
v -0.060743 0.007290 0.077003
v -0.007735 0.007290 0.098199
v -0.033528 0.047925 0.000300
v 0.034649 0.007290 0.105736
v 0.076084 0.007290 0.102710
v 0.124958 0.007290 0.084237
v 0.129529 0.034440 0.031156
v 0.079758 0.034440 0.075017
v 0.095320 0.047925 0.036749
v 0.035633 0.047925 0.055112
v -0.003715 0.034440 0.075587
v -0.033554 0.047925 0.041951
v -0.088033 0.043111 0.029290
v 0.155835 0.000598 0.048537
v 0.165900 0.000598 0.000300
v -0.110535 0.000598 0.044491
v -0.060743 0.000598 0.077003
v -0.007735 0.000598 0.098199
v 0.034649 0.000598 0.105736
v 0.076084 0.000598 0.102710
v 0.124958 0.000598 0.084237
v 0.082363 -0.069163 0.015666
v 0.022869 -0.069163 0.028323
v 0.061264 -0.071927 0.028627
v 0.030974 -0.094096 0.003666
v 0.055975 -0.094096 0.003725
v -0.154100 0.007290 0.000300
v -0.088033 0.043111 -0.028690
v -0.079134 0.047925 0.000300
v -0.060743 0.007290 -0.076403
v -0.003715 0.034440 -0.074987
v -0.033554 0.047925 -0.041351
v -0.007735 0.007290 -0.097599
v 0.034649 0.007290 -0.105136
v 0.035591 0.047925 0.000300
v 0.035633 0.047925 -0.054512
v 0.095320 0.047925 -0.036149
v 0.108136 0.047925 0.000300
v 0.076084 0.007290 -0.102110
v 0.124958 0.007290 -0.083637
v 0.079758 0.034440 -0.074417
v 0.155835 0.007290 -0.047937
v 0.129529 0.034440 -0.030556
v -0.110535 0.007290 -0.043891
v -0.154100 0.000598 0.000300
v -0.110535 0.000598 -0.043891
v 0.155835 0.000598 -0.047937
v -0.060743 0.000598 -0.076403
v -0.007735 0.000598 -0.097599
v 0.034649 0.000598 -0.105136
v 0.076084 0.000598 -0.102110
v 0.124958 0.000598 -0.083637
v 0.082363 -0.069163 -0.015066
v 0.022869 -0.069163 -0.027723
v 0.061264 -0.071927 -0.028027
v 0.056879 -0.094096 0.000300
v -0.016369 -0.069163 0.000300
v 0.030317 -0.094096 0.000300
v 0.030974 -0.094096 -0.003066
v 0.055975 -0.094096 -0.003125
v -0.135510 0.005592 0.022170
v -0.135510 0.002296 0.022170
v -0.135510 0.005592 -0.021570
v -0.135510 0.002296 -0.021570
v -0.087898 0.005592 0.060966
v -0.087898 0.002296 0.060966
v -0.087898 0.005592 -0.060366
v -0.087898 0.002296 -0.060366
v -0.035470 0.005592 0.088580
v -0.035470 0.002296 0.088580
v -0.035470 0.005592 -0.087980
v -0.035470 0.002296 -0.087980
v 0.013180 0.005592 0.104001
v 0.013180 0.002296 0.104001
v 0.013180 0.005592 -0.103401
v 0.013180 0.002296 -0.103401
v 0.055928 0.005592 0.106302
v 0.055928 0.002296 0.106302
v 0.055928 0.005592 -0.105702
v 0.055928 0.002296 -0.105702
v 0.101986 0.005592 0.095337
v 0.101986 0.002296 0.095337
v 0.101986 0.005592 -0.094737
v 0.101986 0.002296 -0.094737
v 0.142658 0.005592 0.067709
v 0.142658 0.002296 0.067709
v 0.142658 0.005592 -0.067109
v 0.142658 0.002296 -0.067109
v 0.163539 0.005592 0.024901
v 0.163539 0.002296 0.024901
v 0.163539 0.005592 -0.024301
v 0.163539 0.002296 -0.024301
vt 0.487856 0.636898
vt 0.361438 0.613423
vt 0.418198 0.539568
vt 0.523329 0.511758
vt 0.329548 0.693869
vt 0.282949 0.694562
vt 0.375149 0.681888
vt 0.769131 0.686710
vt 0.649824 0.651147
vt 0.623636 0.578704
vt 0.768256 0.577445
vt 0.138145 0.669579
vt 0.090811 0.642238
vt 0.193598 0.610011
vt 0.193207 0.686257
vt 0.052062 0.607272
vt 0.024866 0.564721
vt 0.093839 0.522052
vt 0.006262 0.514433
vt 0.001819 0.461307
vt 0.092592 0.398712
vt 0.139759 0.459912
vt 0.165283 0.530052
vt 0.236859 0.696088
vt 0.282511 0.566378
vt 0.906826 0.659272
vt 0.906047 0.576239
vt 0.996960 0.575448
vt 0.546611 0.602951
vt 0.593500 0.561770
vt 0.641330 0.508297
vt 0.672032 0.454523
vt 0.506216 0.456202
vt 0.434674 0.663292
vt 0.768151 0.012227
vt 0.767828 0.018790
vt 0.702164 0.019473
vt 0.702687 0.006144
vt 0.996658 0.131997
vt 0.784099 0.078857
vt 0.729895 0.968908
vt 0.784099 0.913696
vt 0.545470 0.287026
vt 0.493111 0.268753
vt 0.660732 0.099949
vt 0.602983 0.297846
vt 0.730601 0.309816
vt 0.688116 0.307352
vt 0.737426 0.095525
vt 0.770732 0.301607
vt 0.912903 0.248894
vt 0.870919 0.273009
vt 0.946014 0.216219
vt 0.573689 0.058938
vt 0.823719 0.292305
vt 0.976817 0.177228
vt 0.645121 0.307841
vt 0.325923 0.190479
vt 0.280909 0.153908
vt 0.384123 0.220966
vt 0.433763 0.247792
vt 0.990001 0.054768
vt 0.989538 0.001819
vt 0.996383 0.003559
vt 0.996699 0.053401
vt 0.522200 0.400310
vt 0.484201 0.275913
vt 0.416529 0.374635
vt 0.358286 0.301944
vt 0.426206 0.992297
vt 0.426152 0.985724
vt 0.469331 0.981708
vt 0.469554 0.995046
vt 0.648557 0.505816
vt 0.767222 0.468181
vt 0.246294 0.991677
vt 0.246317 0.985104
vt 0.300038 0.982092
vt 0.299944 0.995431
vt 0.147178 0.991710
vt 0.147146 0.985137
vt 0.195441 0.981700
vt 0.195445 0.995039
vt 0.163859 0.389269
vt 0.087134 0.278612
vt 0.190551 0.308752
vt 0.340793 0.992340
vt 0.340820 0.985767
vt 0.383239 0.982422
vt 0.383245 0.995761
vt 0.280328 0.350577
vt 0.278172 0.222411
vt 0.905375 0.493204
vt 0.591345 0.348887
vt 0.640248 0.401381
vt 0.528042 0.990564
vt 0.527865 0.983995
vt 0.583091 0.978689
vt 0.583584 0.992018
vt 0.702009 0.973028
vt 0.767670 0.972401
vt 0.768126 0.978958
vt 0.702794 0.986344
vt 0.001819 0.983888
vt 0.051172 0.986117
vt 0.051287 0.992688
vt 0.002130 0.997223
vt 0.646002 0.979604
vt 0.646318 0.986168
vt 0.660743 0.892583
vt 0.573710 0.933584
vt 0.493113 0.723779
vt 0.737431 0.897020
vt 0.726200 0.963269
vt 0.676407 0.962704
vt 0.280909 0.838696
vt 0.325913 0.802111
vt 0.384111 0.771601
vt 0.982727 0.003679
vt 0.983279 0.053518
vt 0.100732 0.019602
vt 0.051140 0.016277
vt 0.051171 0.009706
vt 0.100697 0.006262
vt 0.646041 0.014002
vt 0.646226 0.007431
vt 0.583158 0.016183
vt 0.527832 0.011951
vt 0.527893 0.005379
vt 0.583387 0.002847
vt 0.469330 0.015158
vt 0.426087 0.011750
vt 0.426060 0.005178
vt 0.469355 0.001819
vt 0.383207 0.015517
vt 0.340760 0.012630
vt 0.340652 0.006058
vt 0.383070 0.002178
vt 0.300048 0.016887
vt 0.246289 0.014761
vt 0.246166 0.008188
vt 0.299750 0.003551
vt 0.543632 0.308664
vt 0.433754 0.744757
vt 0.370608 0.233215
vt 0.430496 0.250602
vt 0.545479 0.705504
vt 0.602999 0.694683
vt 0.324774 0.222160
vt 0.645144 0.684691
vt 0.688143 0.685185
vt 0.188618 0.232529
vt 0.232060 0.221818
vt 0.730631 0.682727
vt 0.770765 0.690941
vt 0.133903 0.250319
vt 0.823754 0.700253
vt 0.870954 0.719558
vt 0.147066 0.009463
vt 0.147118 0.016037
vt 0.022771 0.357448
vt 0.049099 0.314357
vt 0.912935 0.743683
vt 0.946040 0.776365
vt 0.005189 0.408102
vt 0.976837 0.815362
vt 0.996668 0.860599
vt 0.826176 0.012168
vt 0.825412 0.025485
vt 0.100854 0.995496
vt 0.100718 0.982158
vt 0.825107 0.964545
vt 0.826140 0.977844
vt 0.001819 0.019139
vt 0.001959 0.005802
vt 0.195454 0.018848
vt 0.195282 0.005510
vt 0.673366 0.967914
vt 0.673359 0.024619
vt 0.676404 0.029829
vt 0.726205 0.029274
vt 0.729904 0.023636
vn -0.271900 0.726400 0.631200
vn -0.132300 0.655200 0.743800
vn 0.000000 1.000000 0.000000
vn 0.258700 0.681500 0.684500
vn 0.490700 0.761000 0.424400
vn 0.655300 0.742900 0.136700
vn 0.575400 0.817900 0.000000
vn 0.382300 0.914200 0.134400
vn 0.391900 0.805400 0.444600
vn 0.051000 0.714600 0.697700
vn -0.082400 0.897700 0.432900
vn 0.004300 0.779800 0.626000
vn -0.446900 0.576200 0.684400
vn -0.564800 0.609100 0.556800
vn -0.116700 0.984900 0.127700
vn -0.286100 0.637300 0.715600
vn 0.114200 0.921500 0.371200
vn -0.712200 0.000000 0.701900
vn -0.712300 0.000000 0.701900
vn -0.631800 0.000000 0.775100
vn 0.655800 -0.755000 0.000000
vn -0.251500 -0.735700 0.628900
vn 0.050500 -0.720300 0.691800
vn 0.505100 -0.744300 0.436800
vn -0.370000 -0.776600 0.509900
vn -0.377800 -0.770100 0.514000
vn -0.360500 -0.784400 0.504800
vn -0.051100 -0.733500 0.677800
vn -0.049700 -0.732800 0.678700
vn -0.058400 -0.737200 0.673200
vn 0.427400 -0.747800 0.508000
vn 0.423000 -0.749700 0.508900
vn 0.412600 -0.754100 0.510900
vn 0.245700 -0.719100 0.650100
vn 0.646000 -0.751300 0.134800
vn -0.119800 -0.729500 0.673500
vn -0.413500 -0.814200 0.407600
vn -0.340200 -0.782800 0.521000
vn 0.000000 -1.000000 -0.000000
vn -0.476500 0.879200 0.000000
vn -0.271900 0.726400 -0.631200
vn -0.175200 -0.000000 -0.984500
vn -0.174700 0.000000 -0.984600
vn -0.302300 -0.000000 -0.953200
vn 0.353600 -0.000000 -0.935400
vn 0.231900 0.000000 -0.972700
vn 0.756400 -0.000000 -0.654100
vn 0.561800 0.000000 -0.827300
vn 0.382300 0.914200 -0.134400
vn 0.391900 0.805400 -0.444600
vn 0.072900 -0.000000 -0.997300
vn -0.054100 0.000000 -0.998500
vn -0.053600 0.000000 -0.998600
vn -0.082400 0.897700 -0.432900
vn 0.004300 0.779800 -0.626000
vn -0.564800 0.609100 -0.556800
vn -0.116700 0.984900 -0.127700
vn -0.371400 0.000000 -0.928500
vn -0.466100 0.000000 -0.884700
vn 0.114200 0.921500 -0.371200
vn -0.631800 0.000000 -0.775100
vn -0.712200 -0.000000 -0.701900
vn -0.712300 -0.000000 -0.701900
vn 1.000000 0.000000 0.000000
vn 0.978900 -0.000000 -0.204500
vn 0.979000 -0.000000 -0.203900
vn -0.546800 0.000000 -0.837300
vn -0.377800 -0.770100 -0.514000
vn -0.370000 -0.776600 -0.509900
vn -0.360500 -0.784400 -0.504800
vn -0.049700 -0.732800 -0.678700
vn -0.035600 -0.725400 -0.687400
vn -0.051200 -0.733500 -0.677800
vn 0.423000 -0.749700 -0.508900
vn 0.464300 -0.730900 -0.500200
vn 0.427400 -0.747800 -0.508000
vn -0.413500 -0.814200 -0.407600
vn 0.898900 -0.000000 0.438200
vn 0.978800 -0.000000 0.204600
vn 0.978900 -0.000000 0.204400
vn -0.546800 0.000000 0.837300
vn -0.466100 -0.000000 0.884700
vn -0.371400 -0.000000 0.928500
vn -0.302300 -0.000000 0.953200
vn -0.175200 0.000000 0.984500
vn -0.053600 0.000000 0.998600
vn 0.072900 0.000000 0.997300
vn 0.231900 0.000000 0.972700
vn 0.353700 0.000000 0.935400
vn -0.446900 0.576200 -0.684400
vn -0.340200 -0.782800 -0.521000
vn -0.286100 0.637300 -0.715600
vn -0.251500 -0.735700 -0.628900
vn -0.132300 0.655200 -0.743800
vn -0.119800 -0.729500 -0.673500
vn 0.051000 0.714600 -0.697700
vn 0.050500 -0.720300 -0.691800
vn 0.258700 0.681500 -0.684500
vn 0.245700 -0.719100 -0.650100
vn 0.756400 -0.000000 0.654100
vn 0.490700 0.761000 -0.424400
vn 0.505100 -0.744300 -0.436800
vn 0.655300 0.742900 -0.136700
vn 0.646000 -0.751300 -0.134800
vn -1.000000 0.000000 -0.000000
vn 0.898900 -0.000000 -0.438200
vn 0.561700 0.000000 0.827300
vn -0.058400 -0.737200 -0.673200
vn 0.412600 -0.754100 -0.510900
vn -0.422600 -0.730000 -0.537200
vn -0.422600 -0.730000 0.537200
vn -0.035600 -0.725400 0.687400
vn 0.464300 -0.730900 0.500200
usemtl Gem
s 1
f 4/1/1 14/2/1 15/3/1 16/4/1
f 76/5/2 7/6/2 14/2/2 5/7/2
f 13/8/3 12/9/3 41/10/3 38/11/3
f 84/12/4 9/13/4 11/14/4 8/15/4
f 88/16/5 1/17/5 10/18/5 9/13/5
f 92/19/6 2/20/6 10/18/6 1/17/6
f 2/20/7 46/21/7 41/22/7 10/18/7
f 10/18/8 41/22/8 12/23/8
f 9/13/9 10/18/9 12/23/9 11/14/9
f 80/24/10 8/15/10 11/14/10 7/6/10
f 13/25/11 15/3/11 14/2/11
f 7/6/12 11/14/12 13/25/12 14/2/12
f 15/26/3 6/27/3 32/28/3
f 68/29/13 4/1/13 16/4/13 3/30/13
f 64/31/14 3/30/14 16/4/14 30/32/14
f 15/3/15 32/33/15 16/4/15
f 72/34/16 5/7/16 14/2/16 4/1/16
f 13/25/17 11/14/17 12/23/17
f 13/8/3 38/11/3 6/27/3 15/26/3
f 64/35/18 65/36/19 19/37/20 3/38/20
f 18/39/21 25/40/21 59/41/21 56/42/21
f 73/43/22 20/44/22 26/45/22 21/46/22
f 81/47/23 22/48/23 27/49/23 23/50/23
f 89/51/24 24/52/24 25/40/24 17/53/24
f 60/54/25 26/45/26 20/44/27
f 26/45/28 27/49/29 22/48/30
f 27/49/31 25/40/32 24/52/33
f 85/55/34 23/50/34 27/49/34 24/52/34
f 93/56/35 17/53/35 25/40/35 18/39/35
f 77/57/36 21/46/36 26/45/36 22/48/36
f 65/58/37 48/59/37 60/54/37 19/60/37
f 69/61/38 19/60/38 60/54/38 20/44/38
f 61/62/39 59/63/39 29/64/39 28/65/39
f 30/32/40 16/4/40 32/33/40 31/66/40
f 33/67/41 31/66/41 35/68/41 34/69/41
f 78/70/42 79/71/43 52/72/44 36/73/44
f 41/10/3 40/74/3 39/75/3 38/11/3
f 86/76/45 87/77/45 54/78/46 42/79/46
f 90/80/47 91/81/47 55/82/48 43/83/48
f 46/21/49 40/84/49 41/22/49
f 43/85/50 44/86/50 40/84/50 46/21/50
f 82/87/51 83/88/51 53/89/52 37/90/53
f 39/91/54 34/69/54 35/68/54
f 37/92/55 34/69/55 39/91/55 44/86/55
f 35/93/3 32/28/3 6/27/3
f 31/66/56 47/94/56 66/95/56 30/32/56
f 35/68/57 31/66/57 32/33/57
f 74/96/58 75/97/58 51/98/59 33/99/59
f 39/91/60 40/84/60 44/86/60
f 39/75/3 35/93/3 6/27/3 38/11/3
f 49/100/61 67/101/62 66/102/63 47/103/61
f 18/104/64 95/105/65 94/106/66 2/107/64
f 51/98/59 71/108/67 70/109/67 33/99/59
f 57/110/68 60/111/69 51/112/70
f 58/113/71 63/114/72 62/115/72 57/110/73
f 56/42/74 59/41/75 63/114/75 58/113/76
f 60/111/77 48/116/77 67/117/77 49/118/77
f 63/119/39 59/63/39 61/62/39 62/120/39
f 17/121/78 93/122/79 92/123/80 1/124/78
f 19/37/20 69/125/81 68/126/81 3/38/20
f 20/127/82 73/128/83 72/129/83 4/130/82
f 21/131/84 77/132/85 76/133/85 5/134/84
f 22/135/86 81/136/87 80/137/87 7/138/86
f 23/139/88 85/140/89 84/141/89 8/142/88
f 31/66/90 33/67/90 70/143/90 47/94/90
f 60/111/91 49/118/91 71/144/91 51/112/91
f 34/69/92 36/145/92 74/146/92 33/67/92
f 57/110/93 51/112/93 75/147/93 52/148/93
f 34/69/94 37/92/94 78/149/94 36/145/94
f 57/110/95 52/148/95 79/150/95 53/151/95
f 44/86/96 42/152/96 82/153/96 37/92/96
f 58/113/97 53/151/97 83/154/97 54/155/97
f 44/86/98 43/85/98 86/156/98 42/152/98
f 58/113/99 54/155/99 87/157/99 55/158/99
f 88/159/100 89/160/100 17/121/78 1/124/78
f 46/21/101 45/161/101 90/162/101 43/85/101
f 56/42/102 55/158/102 91/163/102 50/164/102
f 46/21/103 2/20/103 94/165/103 45/161/103
f 56/42/104 50/164/104 95/166/104 18/167/104
f 30/168/105 48/169/105 65/36/19 64/35/18
f 37/90/53 53/89/52 79/71/43 78/70/42
f 43/83/48 55/82/48 87/77/45 86/76/45
f 45/170/106 50/171/106 91/81/47 90/80/47
f 42/79/46 54/78/46 83/88/51 82/87/51
f 36/73/44 52/72/44 75/97/58 74/96/58
f 48/172/105 30/173/105 66/102/63 67/101/62
f 50/171/106 45/170/106 94/106/66 95/105/65
f 49/100/61 47/103/61 70/109/67 71/108/67
f 18/174/64 2/175/64 92/123/80 93/122/79
f 20/127/82 4/130/82 68/126/81 69/125/81
f 21/131/84 5/134/84 72/129/83 73/128/83
f 22/135/86 7/138/86 76/133/85 77/132/85
f 23/139/88 8/142/88 80/137/87 81/136/87
f 24/176/107 9/177/107 84/141/89 85/140/89
f 9/177/107 24/176/107 89/160/100 88/159/100
f 58/113/71 57/110/73 53/151/108
f 56/42/74 58/113/76 55/158/109
f 57/110/68 62/115/110 61/178/110 60/111/69
f 60/54/25 61/179/111 28/180/111 26/45/26
f 26/45/28 28/180/112 29/181/112 27/49/29
f 27/49/31 29/181/113 59/182/113 25/40/32
