# Blender v2.74 (sub 0) OBJ File: ''
# www.blender.org
mtllib standard-gemstone-3d-models.mtl
o Briolette
v 0.105900 0.006606 0.000300
v 0.092503 0.006606 -0.049700
v 0.055900 0.006606 -0.086303
v 0.005900 0.006606 -0.099700
v -0.044100 0.006606 -0.086303
v -0.080703 0.006606 -0.049700
v -0.094100 0.006606 0.000300
v -0.080703 0.006606 0.050300
v -0.044100 0.006606 0.086903
v 0.005900 0.006606 0.100300
v 0.055900 0.006606 0.086903
v 0.092503 0.006606 0.050300
v 0.082934 0.037541 0.000300
v 0.044417 0.037541 0.067014
v -0.032617 0.037541 0.067014
v -0.071134 0.037541 0.000300
v -0.032617 0.037541 -0.066414
v 0.044417 0.037541 -0.066414
v 0.005900 0.061199 0.000300
v 0.081147 -0.122569 0.000300
v 0.043524 -0.122569 -0.064866
v -0.031724 -0.122569 -0.064866
v -0.069347 -0.122569 0.000300
v -0.031724 -0.122569 0.065466
v 0.043524 -0.122569 0.065466
v 0.005900 -0.282400 0.000300
vt 0.063501 0.499763
vt 0.149920 0.499763
vt 0.149920 0.553230
vt 0.509686 0.726543
vt 0.642831 0.726543
vt 0.576259 0.841849
vt 0.709403 0.611236
vt 0.576259 0.611236
vt 0.642831 0.553704
vt 0.709403 0.841849
vt 0.642831 0.899381
vt 0.775975 0.726543
vt 0.452396 0.553230
vt 0.337089 0.553230
vt 0.365977 0.499763
vt 0.567702 0.553230
vt 0.538815 0.499763
vt 0.265226 0.553230
vt 0.236339 0.499763
vt 0.034614 0.553230
vt 0.000238 0.499763
vt 0.729250 0.576860
vt 0.556412 0.576860
vt 0.556412 0.876225
vt 0.729250 0.876225
vt 0.452396 0.499763
vt 0.302714 0.499763
vt 0.602078 0.499763
vt 0.299602 0.499763
vt 0.149920 0.276498
vt 0.777842 0.000250
vt 0.756451 0.223514
vt 0.691423 0.000250
vt 0.339764 0.276498
vt 0.452396 0.276498
vt 0.778490 0.999750
vt 0.799881 0.776486
vt 0.864909 0.999750
vt 0.037288 0.276498
vt 0.149920 0.000250
vt 0.262552 0.276498
vt 0.691423 0.499763
vt 0.626395 0.223514
vt 0.452396 0.000250
vt 0.565028 0.276498
vt 0.864909 0.500237
vt 0.929937 0.776486
vt 0.605004 0.000250
vt 0.951328 0.999750
vn 0.785000 0.582800 0.210300
vn -0.289500 0.942500 -0.167100
vn 0.000000 0.732500 0.680800
vn -0.289500 0.942500 0.167100
vn 0.000000 0.942500 0.334200
vn 0.000000 0.732500 -0.680800
vn 0.000000 0.942500 -0.334200
vn 0.289500 0.942500 -0.167100
vn 0.289500 0.942500 0.167100
vn -0.589600 0.732500 -0.340400
vn -0.589600 0.732500 0.340400
vn 0.589600 0.732500 -0.340400
vn 0.574600 0.582800 0.574600
vn 0.589600 0.732500 0.340400
vn 0.210300 0.582800 0.785000
vn -0.210300 0.582800 0.785000
vn -0.210300 0.582800 -0.785000
vn 0.210300 0.582800 -0.785000
vn -0.785000 0.582800 -0.210300
vn -0.574600 0.582800 -0.574600
vn -0.574600 0.582800 0.574600
vn -0.785000 0.582800 0.210300
vn 0.574600 0.582800 -0.574600
vn 0.785000 0.582800 -0.210300
vn 0.949800 -0.182000 -0.254500
vn 0.254500 -0.182000 -0.949800
vn -0.695300 -0.182000 -0.695300
vn -0.949800 -0.182000 0.254500
vn -0.254500 -0.182000 0.949800
vn 0.695300 -0.182000 0.695300
vn 0.801900 -0.377500 -0.463000
vn 0.000000 -0.377500 -0.926000
vn -0.801900 -0.377500 -0.463000
vn -0.801900 -0.377500 0.463000
vn -0.000000 -0.377500 0.926000
vn 0.801900 -0.377500 0.463000
vn 0.836200 -0.260400 -0.482800
vn 0.695300 -0.182000 -0.695300
vn 0.000000 -0.260400 -0.965500
vn -0.254500 -0.182000 -0.949800
vn -0.836200 -0.260400 -0.482800
vn -0.949800 -0.182000 -0.254500
vn -0.836200 -0.260400 0.482800
vn -0.695300 -0.182000 0.695300
vn -0.000000 -0.260400 0.965500
vn 0.254500 -0.182000 0.949800
vn 0.836200 -0.260400 0.482800
vn 0.949800 -0.182000 0.254500
usemtl Gem
s 1
f 12/1/1 1/2/1 13/3/1
f 16/4/2 19/5/2 17/6/2
f 14/7/3 15/8/3 10/9/3
f 15/8/4 19/5/4 16/4/4
f 14/7/5 19/5/5 15/8/5
f 17/6/6 18/10/6 4/11/6
f 17/6/7 19/5/7 18/10/7
f 18/10/8 19/5/8 13/12/8
f 14/7/9 13/12/9 19/5/9
f 16/13/10 17/14/10 6/15/10
f 15/16/11 16/13/11 8/17/11
f 18/18/12 13/3/12 2/19/12
f 12/1/13 14/20/13 11/21/13
f 12/1/14 13/3/14 14/20/14
f 14/7/15 10/9/15 11/22/15
f 10/9/16 15/8/16 9/23/16
f 17/6/17 4/11/17 5/24/17
f 4/11/18 18/10/18 3/25/18
f 16/13/19 6/15/19 7/26/19
f 6/15/20 17/14/20 5/27/20
f 15/16/21 8/17/21 9/28/21
f 8/17/22 16/13/22 7/26/22
f 18/18/23 2/19/23 3/29/23
f 2/19/24 13/3/24 1/2/24
f 1/2/25 20/30/25 2/19/25
f 3/31/26 21/32/26 4/33/26
f 5/27/27 22/34/27 6/15/27
f 7/26/28 23/35/28 8/17/28
f 9/36/29 24/37/29 10/38/29
f 11/21/30 25/39/30 12/1/30
f 20/30/31 26/40/31 21/41/31
f 21/32/32 26/42/32 22/43/32
f 22/34/33 26/44/33 23/35/33
f 23/35/34 26/44/34 24/45/34
f 24/37/35 26/46/35 25/47/35
f 25/39/36 26/40/36 20/30/36
f 2/19/37 20/30/37 21/41/37
f 2/19/38 21/41/38 3/29/38
f 4/33/39 21/32/39 22/43/39
f 4/33/40 22/43/40 5/48/40
f 6/15/41 22/34/41 23/35/41
f 6/15/42 23/35/42 7/26/42
f 8/17/43 23/35/43 24/45/43
f 8/17/44 24/45/44 9/28/44
f 10/38/45 24/37/45 25/47/45
f 10/38/46 25/47/46 11/49/46
f 12/1/47 25/39/47 20/30/47
f 12/1/48 20/30/48 1/2/48
